<?xml version="1.0" standalone="no"?><!-- Generator: Gravit.io -->
<svg xmlns="http://www.w3.org/2000/svg" xmlns:xlink="http://www.w3.org/1999/xlink" style="isolation:isolate" viewBox="10 55.459 480 391.082" width="480" height="391.082">
    <g>
        <path fill="rgb(255,255,255)" d=" M 16.688004 299.468994 L 78.182999 299.468994 L 78.182999 440.901993 C 78.182999 444.016006 80.707993 446.541 83.822006 446.541 C 86.936005 446.541 89.460999 444.016006 89.460999 440.901993 L 89.460999 407.220001 L 406.901001 407.220001 L 406.901001 440.901993 C 406.901001 444.016006 409.426025 446.541 412.539978 446.541 C 415.655029 446.541 418.179016 444.016006 418.179016 440.901993 L 418.179016 299.468994 L 484.361023 299.468994 C 485.879028 299.468994 487.333008 298.856995 488.393005 297.770996 C 489.453979 296.686005 490.03302 295.218994 489.997986 293.701996 L 488.950012 247.669006 C 488.880005 244.605011 486.375977 242.158997 483.312012 242.158997 L 332.19101 242.158997 L 332.19101 202.138 C 332.19101 195.571991 329.302002 189.38501 324.257996 185.158997 C 321.957001 183.235992 319.333008 181.821991 316.463989 180.959991 L 270.102997 166.962006 C 269.792999 166.868011 269.506012 166.733002 269.255005 166.565002 C 268.386993 165.983002 267.868988 165.011993 267.868988 163.96701 C 267.868988 163.376007 268.03299 162.801025 268.343994 162.302979 C 268.350006 162.291992 268.381012 162.242981 268.386993 162.231018 C 268.415985 162.192993 268.445007 162.153992 268.472992 162.116028 C 268.765015 161.710999 269.161987 161.377991 269.618011 161.155029 L 273.937988 159.046021 C 283.553986 154.353027 289.765991 144.400024 289.765991 133.692017 L 289.765991 115.245972 C 291.690002 113.473022 293.503998 110.85199 295.308014 107.265015 C 295.980011 105.93103 296.649994 104.463013 297.356995 102.775024 C 297.539001 102.338013 297.705994 101.90802 297.859009 101.471985 C 300.415009 94.242981 299.410004 86.447998 295.101013 80.093018 C 289.976013 72.505981 281.242004 68.541016 272.285004 69.752014 C 271.260986 69.89502 270.256989 70.096008 269.302002 70.351013 C 268.713989 70.505981 268.134003 70.671997 267.565002 70.844971 C 268.108002 66.195984 267.838013 62.067993 267.708008 60.599976 C 267.475006 57.98999 265.476013 55.882996 262.881012 55.515991 C 260.286011 55.145996 257.781006 56.617981 256.833008 59.060974 C 254.839996 64.200989 250.640991 67.867981 246.459991 70.388 C 245.813995 66.869995 243.93399 64.530029 243.658997 64.203003 C 242.632996 62.981995 241.139008 62.254028 239.54599 62.197021 C 237.950989 62.140015 236.411011 62.757996 235.299988 63.901001 C 232.369995 66.914978 228.619995 68.859009 224.154999 69.677979 C 208.817993 72.494019 198.459015 86.734009 200.571014 102.098022 C 201.548004 109.203003 206.154999 114.367004 209.11499 117.020996 L 209.11499 133.692017 C 209.11499 144.395996 215.326996 154.348022 224.946014 159.046997 L 229.194 161.119019 C 229.244995 161.146973 229.295013 161.174988 229.346985 161.202026 C 230.377014 161.741028 231.018005 162.801025 231.018005 163.96701 L 231.018005 164.359009 C 231.018005 165.309998 230.591003 166.200989 229.845001 166.804993 C 229.696014 166.924988 229.52301 167.036987 229.371002 167.118011 C 229.177002 167.217987 228.981995 167.298004 228.791992 167.355011 L 183.73999 180.959015 C 174.332001 183.796997 168.010986 192.30899 168.010986 202.138 L 168.010986 242.158997 L 109.703003 242.158997 C 110.123993 240.740997 110.352997 239.243988 110.352997 237.691986 L 110.352997 207.971985 C 110.352997 204.856995 107.828003 202.333008 104.714005 202.333008 L 75.147003 202.333008 C 72.033997 202.333008 69.509003 204.856995 69.509003 207.971985 L 69.509003 237.691986 C 69.509003 239.243988 69.738007 240.740997 70.158005 242.158997 L 15.639008 242.158997 C 14.121002 242.158997 12.667007 242.770996 11.606003 243.855011 C 10.544998 244.94101 9.966995 246.40799 10.001007 247.925995 L 11.050003 293.958008 C 11.119995 297.020996 13.623993 299.468994 16.688004 299.468994 L 16.688004 299.468994 Z  M 406.901001 395.941986 L 89.460999 395.941986 L 89.460999 299.468994 L 406.901001 299.468994 L 406.901001 395.941986 L 406.901001 395.941986 Z  M 268.565002 178.278015 L 313.209991 191.756989 C 314.618011 192.179993 315.902008 192.872009 317.020996 193.808014 C 319.494995 195.880005 320.914001 198.916992 320.914001 202.138 L 320.914001 242.158997 L 302.423004 242.158997 L 302.423004 215.259003 C 302.423004 212.144989 299.89801 209.619995 296.783997 209.619995 C 293.670013 209.619995 291.144989 212.144989 291.144989 215.259003 L 291.144989 242.158997 L 268.911011 242.158997 L 265.247986 184.020996 L 268.565002 178.278015 L 268.565002 178.278015 Z  M 216.618988 108.596985 C 214.774994 106.919983 212.205994 103.919983 211.743988 100.562012 C 210.454987 91.187988 216.800995 82.494019 226.19101 80.77002 C 227.770996 80.47998 229.295013 80.094971 230.763 79.614014 C 230.558014 80.729004 230.687988 81.908997 231.19101 82.997009 C 232.303009 85.398987 234.937012 86.705017 237.519989 86.138 C 238.013 86.028992 244.380005 84.577026 251.295013 80.61499 C 250.997009 82.002014 251.218994 83.502014 252.032013 84.796997 C 253.677002 87.416016 257.122009 88.223022 259.756989 86.60498 C 260.743011 86.000977 265.973999 82.901001 272.196991 81.25 C 272.716003 81.111023 273.270996 81 273.819 80.924011 C 278.473999 80.296021 283.048004 82.396973 285.761993 86.413025 C 288.044006 89.778992 288.576996 93.900024 287.223999 97.71698 C 287.221985 97.724976 287.218994 97.731995 287.21701 97.739014 C 287.135986 97.971008 287.04599 98.198975 286.950989 98.427002 C 286.348999 99.864014 285.789001 101.093994 285.235992 102.192993 C 283.72699 105.192017 282.666992 106.432007 282.208008 106.879028 C 277.199005 107.573975 252.572998 110.054016 238.102997 94.328003 C 236.816986 92.929993 234.911011 92.281982 233.039001 92.586975 C 231.165009 92.89502 229.569 94.130005 228.796997 95.864014 C 227.386993 99.028992 222.367004 107.515991 216.618988 108.596985 L 216.618988 108.596985 Z  M 229.891998 148.911987 C 224.121002 146.093018 220.391998 140.119019 220.391998 133.692017 L 220.391998 119.281006 C 227.132996 117.322998 232.178986 111.679993 235.326996 107.067017 C 249.950012 118.539001 268.669006 119.195984 278.489014 118.575012 L 278.489014 133.692017 C 278.489014 140.120972 274.760986 146.094971 268.98999 148.911987 L 264.665009 151.02301 C 262.562988 152.052002 260.730988 153.588013 259.363007 155.468018 C 259.151001 155.750977 258.951996 156.046021 258.769989 156.34198 C 257.345001 158.630005 256.59201 161.268005 256.59201 163.96701 C 256.59201 166.917999 257.493011 169.73999 259.109985 172.101013 L 255.925995 177.612 L 243.615997 177.612 L 240.243988 171.772003 C 241.571014 169.562988 242.295013 167.014008 242.295013 164.359009 L 242.295013 163.96701 C 242.295013 158.642029 239.394012 153.794983 234.712006 151.281006 C 234.539001 151.182007 234.362 151.090027 234.183014 151.004028 L 229.891998 148.911987 L 229.891998 148.911987 Z  M 257.610992 242.158997 L 242.298004 242.158997 L 245.654999 188.890015 L 254.255005 188.890015 L 257.610992 242.158997 L 257.610992 242.158997 Z  M 179.289001 202.138 C 179.289001 197.319 182.385986 193.147003 186.997986 191.756012 L 231.075012 178.446991 L 234.626007 184.596008 L 230.997986 242.158997 L 208.39801 242.158997 L 208.39801 215.259003 C 208.39801 212.144989 205.873993 209.619995 202.76001 209.619995 C 199.645996 209.619995 197.121002 212.144989 197.121002 215.259003 L 197.121002 242.158997 L 179.289001 242.158997 L 179.289001 202.138 L 179.289001 202.138 Z  M 80.785995 213.609985 L 99.074997 213.609985 L 99.074997 237.691986 C 99.074997 240.153015 97.072006 242.157013 94.610992 242.157013 L 85.251007 242.157013 C 82.789993 242.157013 80.785995 240.153015 80.785995 237.691986 L 80.785995 213.609985 L 80.785995 213.609985 Z  M 173.649994 253.436005 L 236.286987 253.436005 C 236.290985 253.436005 236.295013 253.436005 236.298004 253.436005 C 236.300995 253.436005 236.303009 253.436005 236.306 253.436005 L 326.553009 253.436005 L 477.801025 253.436005 L 478.593018 288.19101 L 22.199997 288.19101 L 21.406998 253.436005 L 173.649994 253.436005 L 173.649994 253.436005 Z "/>
        <path fill="rgb(255,255,255)" d=" M 439.994995 216.783997 L 385.085999 216.783997 C 381.971985 216.783997 379.447021 219.308014 379.447021 222.423004 C 379.447021 225.536987 381.971985 228.062012 385.085999 228.062012 L 439.994995 228.062012 C 443.109009 228.062012 445.632996 225.536987 445.632996 222.423004 C 445.632996 219.308014 443.109009 216.783997 439.994995 216.783997 L 439.994995 216.783997 Z "/>
        <path fill="rgb(255,255,255)" d=" M 439.994995 191.877991 L 385.085999 191.877991 C 381.971985 191.877991 379.447021 194.402008 379.447021 197.516998 C 379.447021 200.631012 381.971985 203.154999 385.085999 203.154999 L 439.994995 203.154999 C 443.109009 203.154999 445.632996 200.631012 445.632996 197.516998 C 445.632996 194.402008 443.109009 191.877991 439.994995 191.877991 L 439.994995 191.877991 Z "/>
        <path fill="rgb(255,255,255)" d=" M 178.811005 327.368011 L 335.756012 327.368011 C 338.869995 327.368011 341.394989 324.842987 341.394989 321.729004 C 341.394989 318.614014 338.869995 316.089996 335.756012 316.089996 L 178.811005 316.089996 C 175.696991 316.089996 173.171997 318.614014 173.171997 321.729004 C 173.171997 324.842987 175.696991 327.368011 178.811005 327.368011 L 178.811005 327.368011 Z "/>
        <path fill="rgb(255,255,255)" d=" M 178.811005 351.542999 L 335.756012 351.542999 C 338.869995 351.542999 341.394989 349.019012 341.394989 345.903992 C 341.394989 342.790009 338.869995 340.265991 335.756012 340.265991 L 178.811005 340.265991 C 175.696991 340.265991 173.171997 342.790009 173.171997 345.903992 C 173.171997 349.019012 175.696991 351.542999 178.811005 351.542999 L 178.811005 351.542999 Z "/>
        <path fill="rgb(255,255,255)" d=" M 178.811005 375.718994 L 335.756012 375.718994 C 338.869995 375.718994 341.394989 373.194 341.394989 370.079987 C 341.394989 366.964996 338.869995 364.44101 335.756012 364.44101 L 178.811005 364.44101 C 175.696991 364.44101 173.171997 366.964996 173.171997 370.079987 C 173.171997 373.194 175.696991 375.718994 178.811005 375.718994 L 178.811005 375.718994 Z "/>
    </g>
</svg>