<?xml version="1.0" standalone="no"?><!-- Generator: Gravit.io --><svg xmlns="http://www.w3.org/2000/svg" xmlns:xlink="http://www.w3.org/1999/xlink" style="isolation:isolate" viewBox="100 119 601 601" width="601" height="601"><g><g><path d=" M 166.687726 450.069095 L 228.182721 450.069095 L 228.182721 591.502094 C 228.182721 594.616107 230.707715 597.141101 233.821729 597.141101 C 236.935727 597.141101 239.460721 594.616107 239.460721 591.502094 L 239.460721 557.820102 L 556.900723 557.820102 L 556.900723 591.502094 C 556.900723 594.616107 559.425748 597.141101 562.5397 597.141101 C 565.654752 597.141101 568.178739 594.616107 568.178739 591.502094 L 568.178739 450.069095 L 634.360745 450.069095 C 635.878751 450.069095 637.33273 449.457095 638.392728 448.371097 C 639.453702 447.286105 640.032742 445.819095 639.997708 444.302097 L 638.949735 398.269107 C 638.879727 395.205112 636.375699 392.759097 633.311734 392.759097 L 482.190732 392.759097 L 482.190732 352.738101 C 482.190732 346.172092 479.301724 339.985111 474.257718 335.759097 C 471.956723 333.836093 469.33273 332.422092 466.463712 331.560092 L 420.102719 317.562106 C 419.792722 317.468112 419.505734 317.333103 419.254727 317.165103 C 418.386716 316.583103 417.86871 315.612094 417.86871 314.567111 C 417.86871 313.976108 418.032712 313.401126 418.343717 312.903079 C 418.349729 312.892093 418.380734 312.843082 418.386716 312.831119 C 418.415708 312.793094 418.44473 312.754093 418.472714 312.716129 C 418.764737 312.311099 419.16171 311.978092 419.617734 311.75513 L 423.937711 309.646121 C 433.553708 304.953128 439.765714 295.000125 439.765714 284.292117 L 439.765714 265.846072 C 441.689725 264.073123 443.50372 261.452091 445.307736 257.865115 C 445.979733 256.531131 446.649716 255.063114 447.356717 253.375125 C 447.538724 252.938114 447.705716 252.508121 447.858731 252.072086 C 450.414731 244.843082 449.409726 237.048099 445.100736 230.693118 C 439.975736 223.106082 431.241727 219.141116 422.284726 220.352115 C 421.260709 220.49512 420.256711 220.696109 419.301724 220.951114 C 418.713712 221.106082 418.133725 221.272098 417.564725 221.445072 C 418.107724 216.796085 417.837735 212.668094 417.70773 211.200076 C 417.474729 208.590091 415.475736 206.483096 412.880734 206.116092 C 410.285733 205.746097 407.780728 207.218082 406.83273 209.661075 C 404.839719 214.80109 400.640714 218.468082 396.459714 220.988101 C 395.813718 217.470096 393.933713 215.13013 393.658719 214.803104 C 392.632718 213.582095 391.13873 212.854129 389.545712 212.797122 C 387.950711 212.740115 386.410733 213.358096 385.29971 214.501102 C 382.369718 217.515079 378.619718 219.45911 374.154721 220.278079 C 358.817716 223.094119 348.458737 237.33411 350.570737 252.698123 C 351.547727 259.803104 356.154721 264.967105 359.114713 267.621097 L 359.114713 284.292117 C 359.114713 294.996097 365.326718 304.948123 374.945737 309.647098 L 379.193723 311.719119 C 379.244718 311.747073 379.294736 311.775089 379.346707 311.802127 C 380.376737 312.341129 381.017728 313.401126 381.017728 314.567111 L 381.017728 314.95911 C 381.017728 315.910098 380.590726 316.80109 379.844724 317.405093 C 379.695737 317.525089 379.522733 317.637088 379.370725 317.718112 C 379.176724 317.818088 378.981717 317.898105 378.791715 317.955112 L 333.739713 331.559116 C 324.331723 334.397098 318.010709 342.909091 318.010709 352.738101 L 318.010709 392.759097 L 259.702725 392.759097 C 260.123715 391.341098 260.352719 389.844089 260.352719 388.292087 L 260.352719 358.572086 C 260.352719 355.457095 257.827725 352.933109 254.713727 352.933109 L 225.146726 352.933109 C 222.033719 352.933109 219.508725 355.457095 219.508725 358.572086 L 219.508725 388.292087 C 219.508725 389.844089 219.737729 391.341098 220.157727 392.759097 L 165.63873 392.759097 C 164.120725 392.759097 162.66673 393.371097 161.605725 394.455112 C 160.544721 395.54111 159.966718 397.00809 160.000729 398.526096 L 161.049725 444.558109 C 161.119718 447.621097 163.623715 450.069095 166.687726 450.069095 L 166.687726 450.069095 Z  M 556.900723 546.542087 L 239.460721 546.542087 L 239.460721 450.069095 L 556.900723 450.069095 L 556.900723 546.542087 L 556.900723 546.542087 Z  M 418.564725 328.878116 L 463.209714 342.357089 C 464.617734 342.780093 465.90173 343.47211 467.020718 344.408115 C 469.494718 346.480106 470.913724 349.517093 470.913724 352.738101 L 470.913724 392.759097 L 452.422727 392.759097 L 452.422727 365.859103 C 452.422727 362.74509 449.897733 360.220096 446.783719 360.220096 C 443.669736 360.220096 441.144711 362.74509 441.144711 365.859103 L 441.144711 392.759097 L 418.910733 392.759097 L 415.247708 334.621097 L 418.564725 328.878116 L 418.564725 328.878116 Z  M 366.61871 259.197086 C 364.774716 257.520084 362.205716 254.520084 361.74371 251.162113 C 360.454709 241.788089 366.800717 233.094119 376.190732 231.37012 C 377.770718 231.080081 379.294736 230.695072 380.762723 230.214114 C 380.557736 231.329105 380.687711 232.509097 381.190732 233.59711 C 382.302731 235.999088 384.936734 237.305118 387.519711 236.738101 C 388.012723 236.629093 394.379727 235.177127 401.294736 231.215091 C 400.996732 232.602115 401.218717 234.102115 402.031735 235.397098 C 403.676724 238.016116 407.121732 238.823123 409.756711 237.205081 C 410.742734 236.601077 415.973721 233.501102 422.196713 231.850101 C 422.715726 231.711124 423.270718 231.600101 423.818723 231.524112 C 428.473721 230.896121 433.047727 232.997073 435.761716 237.013126 C 438.043729 240.379093 438.576718 244.500125 437.223721 248.317081 C 437.221707 248.325076 437.218717 248.332095 437.216733 248.339114 C 437.135709 248.571109 437.045712 248.799075 436.950711 249.027103 C 436.348721 250.464114 435.788724 251.694095 435.235715 252.793094 C 433.726712 255.792117 432.666715 257.032108 432.20773 257.479129 C 427.198728 258.174075 402.57272 260.654117 388.102719 244.928104 C 386.816708 243.530093 384.910733 242.882083 383.038724 243.187076 C 381.164731 243.49512 379.568723 244.730106 378.796719 246.464114 C 377.386716 249.629093 372.366727 258.116092 366.61871 259.197086 L 366.61871 259.197086 Z  M 379.891721 299.512088 C 374.120725 296.693118 370.391721 290.719119 370.391721 284.292117 L 370.391721 269.881107 C 377.132718 267.923099 382.178708 262.280093 385.326718 257.667117 C 399.949735 269.139102 418.668729 269.796085 428.488736 269.175113 L 428.488736 284.292117 C 428.488736 290.721072 424.760709 296.695072 418.989713 299.512088 L 414.664731 301.623111 C 412.562711 302.652103 410.73071 304.188114 409.362729 306.068118 C 409.150723 306.351077 408.951718 306.646121 408.769711 306.942081 C 407.344724 309.230106 406.591733 311.868106 406.591733 314.567111 C 406.591733 317.5181 407.492734 320.340091 409.109708 322.701114 L 405.925717 328.2121 L 393.61572 328.2121 L 390.24371 322.372104 C 391.570737 320.163089 392.294736 317.614108 392.294736 314.95911 L 392.294736 314.567111 C 392.294736 309.24213 389.393735 304.395084 384.711728 301.881107 C 384.538724 301.782108 384.361722 301.690128 384.182736 301.604129 L 379.891721 299.512088 L 379.891721 299.512088 Z  M 407.610715 392.759097 L 392.297727 392.759097 L 395.654721 339.490115 L 404.254727 339.490115 L 407.610715 392.759097 L 407.610715 392.759097 Z  M 329.288724 352.738101 C 329.288724 347.919101 332.385709 343.747104 336.997708 342.356113 L 381.074735 329.047092 L 384.625729 335.196109 L 380.997708 392.759097 L 358.397733 392.759097 L 358.397733 365.859103 C 358.397733 362.74509 355.873715 360.220096 352.759732 360.220096 C 349.645718 360.220096 347.120725 362.74509 347.120725 365.859103 L 347.120725 392.759097 L 329.288724 392.759097 L 329.288724 352.738101 L 329.288724 352.738101 Z  M 230.785718 364.210086 L 249.074719 364.210086 L 249.074719 388.292087 C 249.074719 390.753116 247.071729 392.757114 244.610715 392.757114 L 235.250729 392.757114 C 232.789716 392.757114 230.785718 390.753116 230.785718 388.292087 L 230.785718 364.210086 L 230.785718 364.210086 Z  M 323.649716 404.036105 L 386.28671 404.036105 C 386.290708 404.036105 386.294736 404.036105 386.297727 404.036105 C 386.300717 404.036105 386.302731 404.036105 386.305722 404.036105 L 476.552731 404.036105 L 627.800748 404.036105 L 628.59274 438.79111 L 172.199719 438.79111 L 171.40672 404.036105 L 323.649716 404.036105 L 323.649716 404.036105 Z " fill="rgb(0,0,0)"/><path d=" M 589.994718 367.384097 L 535.085721 367.384097 C 531.971707 367.384097 529.446744 369.908115 529.446744 373.023105 C 529.446744 376.137088 531.971707 378.662113 535.085721 378.662113 L 589.994718 378.662113 C 593.108731 378.662113 595.632718 376.137088 595.632718 373.023105 C 595.632718 369.908115 593.108731 367.384097 589.994718 367.384097 L 589.994718 367.384097 Z " fill="rgb(0,0,0)"/><path d=" M 589.994718 342.478092 L 535.085721 342.478092 C 531.971707 342.478092 529.446744 345.002109 529.446744 348.117099 C 529.446744 351.231113 531.971707 353.7551 535.085721 353.7551 L 589.994718 353.7551 C 593.108731 353.7551 595.632718 351.231113 595.632718 348.117099 C 595.632718 345.002109 593.108731 342.478092 589.994718 342.478092 L 589.994718 342.478092 Z " fill="rgb(0,0,0)"/><path d=" M 328.810727 477.968112 L 485.755734 477.968112 C 488.869718 477.968112 491.394711 475.443088 491.394711 472.329105 C 491.394711 469.214114 488.869718 466.690097 485.755734 466.690097 L 328.810727 466.690097 C 325.696713 466.690097 323.171719 469.214114 323.171719 472.329105 C 323.171719 475.443088 325.696713 477.968112 328.810727 477.968112 L 328.810727 477.968112 Z " fill="rgb(0,0,0)"/><path d=" M 328.810727 502.1431 L 485.755734 502.1431 C 488.869718 502.1431 491.394711 499.619113 491.394711 496.504093 C 491.394711 493.390109 488.869718 490.866092 485.755734 490.866092 L 328.810727 490.866092 C 325.696713 490.866092 323.171719 493.390109 323.171719 496.504093 C 323.171719 499.619113 325.696713 502.1431 328.810727 502.1431 L 328.810727 502.1431 Z " fill="rgb(0,0,0)"/><path d=" M 328.810727 526.319095 L 485.755734 526.319095 C 488.869718 526.319095 491.394711 523.794101 491.394711 520.680087 C 491.394711 517.565097 488.869718 515.04111 485.755734 515.04111 L 328.810727 515.04111 C 325.696713 515.04111 323.171719 517.565097 323.171719 520.680087 C 323.171719 523.794101 325.696713 526.319095 328.810727 526.319095 L 328.810727 526.319095 Z " fill="rgb(0,0,0)"/></g><circle vector-effect="non-scaling-stroke" cx="400.49999999999915" cy="419.4999999999996" r="295.5" fill="none" stroke-width="10" stroke="rgb(0,0,0)" stroke-linejoin="miter" stroke-linecap="square" stroke-miterlimit="3"/></g></svg>
