<?xml version="1.0" encoding="UTF-8" standalone="no"?>
<svg
   xmlns:dc="http://purl.org/dc/elements/1.1/"
   xmlns:cc="http://creativecommons.org/ns#"
   xmlns:rdf="http://www.w3.org/1999/02/22-rdf-syntax-ns#"
   xmlns:svg="http://www.w3.org/2000/svg"
   xmlns="http://www.w3.org/2000/svg"
   xmlns:sodipodi="http://sodipodi.sourceforge.net/DTD/sodipodi-0.dtd"
   xmlns:inkscape="http://www.inkscape.org/namespaces/inkscape"
   style="isolation:isolate"
   viewBox="0 0 611 611"
   width="611"
   height="611"
   version="1.1"
   id="svg132"
   sodipodi:docname="logo-black.svg"
   inkscape:version="1.0beta2 (2b71d25, 2019-12-03)">
  <metadata
     id="metadata136">
    <rdf:RDF>
      <cc:Work
         rdf:about="">
        <dc:format>image/svg+xml</dc:format>
        <dc:type
           rdf:resource="http://purl.org/dc/dcmitype/StillImage" />
        <dc:title></dc:title>
      </cc:Work>
    </rdf:RDF>
  </metadata>
  <sodipodi:namedview
     pagecolor="#ffffff"
     bordercolor="#666666"
     inkscape:document-rotation="0"
     borderopacity="1"
     objecttolerance="10"
     gridtolerance="10"
     guidetolerance="10"
     inkscape:pageopacity="0"
     inkscape:pageshadow="2"
     inkscape:window-width="1680"
     inkscape:window-height="1005"
     id="namedview134"
     showgrid="false"
     inkscape:zoom="0.99625"
     inkscape:cx="381.93225"
     inkscape:cy="400"
     inkscape:window-x="0"
     inkscape:window-y="23"
     inkscape:window-maximized="0"
     inkscape:current-layer="svg132" />
  <defs
     id="defs86">
    <clipPath
       id="_clipPath_2tiV5mWNL7Rnqi7rLfe5yXzKWZa1bSTe">
      <rect
         y="0"
         x="0"
         width="800"
         height="800"
         id="rect83" />
    </clipPath>
  </defs>
  <g
     transform="translate(-92.2936,-92.353827)"
     clip-path="url(#_clipPath_2tiV5mWNL7Rnqi7rLfe5yXzKWZa1bSTe)"
     id="g130"
     style="stroke:#000000;stroke-opacity:1">
    <clipPath
       id="_clipPath_MSfMe79CQ7SAasVQ8NfxQgw8I6gqX31l">
      <path
         inkscape:connector-curvature="0"
         d="M 0,0 V 800 H 800 V 0 Z"
         fill="rgb(255,255,255)"
         id="path88" />
    </clipPath>
    <g
       clip-path="url(#_clipPath_MSfMe79CQ7SAasVQ8NfxQgw8I6gqX31l)"
       id="g93"
       style="stroke:#000000;stroke-opacity:1">
      <path
         inkscape:connector-curvature="0"
         d="m 166.688,425.469 h 61.495 v 141.433 c 0,3.114 2.525,5.639 5.639,5.639 3.114,0 5.639,-2.525 5.639,-5.639 V 533.22 h 317.44 v 33.682 c 0,3.114 2.525,5.639 5.639,5.639 3.115,0 5.639,-2.525 5.639,-5.639 V 425.469 h 66.182 c 1.518,0 2.972,-0.612 4.032,-1.698 1.061,-1.085 1.64,-2.552 1.605,-4.069 l -1.048,-46.033 c -0.07,-3.064 -2.574,-5.51 -5.638,-5.51 H 482.191 v -40.021 c 0,-6.566 -2.889,-12.753 -7.933,-16.979 -2.301,-1.923 -4.925,-3.337 -7.794,-4.199 l -46.361,-13.998 c -0.31,-0.094 -0.597,-0.229 -0.848,-0.397 -0.868,-0.582 -1.386,-1.553 -1.386,-2.598 0,-0.591 0.164,-1.166 0.475,-1.664 0.006,-0.011 0.037,-0.06 0.043,-0.072 0.029,-0.038 0.058,-0.077 0.086,-0.115 0.292,-0.405 0.689,-0.738 1.145,-0.961 l 4.32,-2.109 c 9.616,-4.693 15.828,-14.646 15.828,-25.354 v -18.446 c 1.924,-1.773 3.738,-4.394 5.542,-7.981 0.672,-1.334 1.342,-2.802 2.049,-4.49 0.182,-0.437 0.349,-0.867 0.502,-1.303 2.556,-7.229 1.551,-15.024 -2.758,-21.379 -5.125,-7.587 -13.859,-11.552 -22.816,-10.341 -1.024,0.143 -2.028,0.344 -2.983,0.599 -0.588,0.155 -1.168,0.321 -1.737,0.494 0.543,-4.649 0.273,-8.777 0.143,-10.245 -0.233,-2.61 -2.232,-4.717 -4.827,-5.084 -2.595,-0.37 -5.1,1.102 -6.048,3.545 -1.993,5.14 -6.192,8.807 -10.373,11.327 -0.646,-3.518 -2.526,-5.858 -2.801,-6.185 -1.026,-1.221 -2.52,-1.949 -4.113,-2.006 -1.595,-0.057 -3.135,0.561 -4.246,1.704 -2.93,3.014 -6.68,4.958 -11.145,5.777 -15.337,2.816 -25.696,17.056 -23.584,32.42 0.977,7.105 5.584,12.269 8.544,14.923 v 16.671 c 0,10.704 6.212,20.656 15.831,25.355 l 4.248,2.072 c 0.051,0.028 0.101,0.056 0.153,0.083 1.03,0.539 1.671,1.599 1.671,2.765 v 0.392 c 0,0.951 -0.427,1.842 -1.173,2.446 -0.149,0.12 -0.322,0.232 -0.474,0.313 -0.194,0.1 -0.389,0.18 -0.579,0.237 l -45.052,13.604 c -9.408,2.838 -15.729,11.35 -15.729,21.179 v 40.021 h -58.308 c 0.421,-1.418 0.65,-2.915 0.65,-4.467 v -29.72 c 0,-3.115 -2.525,-5.639 -5.639,-5.639 h -29.567 c -3.113,0 -5.638,2.524 -5.638,5.639 v 29.72 c 0,1.552 0.229,3.049 0.649,4.467 h -54.519 c -1.518,0 -2.972,0.612 -4.033,1.696 -1.061,1.086 -1.639,2.553 -1.605,4.071 l 1.049,46.032 c 0.07,3.063 2.574,5.511 5.638,5.511 z m 390.213,96.473 h -317.44 v -96.473 h 317.44 z M 418.565,304.278 463.21,317.757 c 1.408,0.423 2.692,1.115 3.811,2.051 2.474,2.072 3.893,5.109 3.893,8.33 v 40.021 h -18.491 v -26.9 c 0,-3.114 -2.525,-5.639 -5.639,-5.639 -3.114,0 -5.639,2.525 -5.639,5.639 v 26.9 h -22.234 l -3.663,-58.138 z m -51.946,-69.681 c -1.844,-1.677 -4.413,-4.677 -4.875,-8.035 -1.289,-9.374 5.057,-18.068 14.447,-19.792 1.58,-0.29 3.104,-0.675 4.572,-1.156 -0.205,1.115 -0.075,2.295 0.428,3.383 1.112,2.402 3.746,3.708 6.329,3.141 0.493,-0.109 6.86,-1.561 13.775,-5.523 -0.298,1.387 -0.076,2.887 0.737,4.182 1.645,2.619 5.09,3.426 7.725,1.808 0.986,-0.604 6.217,-3.704 12.44,-5.355 0.519,-0.139 1.074,-0.25 1.622,-0.326 4.655,-0.628 9.229,1.473 11.943,5.489 2.282,3.366 2.815,7.487 1.462,11.304 -0.002,0.008 -0.005,0.015 -0.007,0.022 -0.081,0.232 -0.171,0.46 -0.266,0.688 -0.602,1.437 -1.162,2.667 -1.715,3.766 -1.509,2.999 -2.569,4.239 -3.028,4.686 -5.009,0.695 -29.635,3.175 -44.105,-12.551 -1.286,-1.398 -3.192,-2.046 -5.064,-1.741 -1.874,0.308 -3.47,1.543 -4.242,3.277 -1.41,3.165 -6.43,11.652 -12.178,12.733 z m 13.273,40.315 c -5.771,-2.819 -9.5,-8.793 -9.5,-15.22 v -14.411 c 6.741,-1.958 11.787,-7.601 14.935,-12.214 14.623,11.472 33.342,12.129 43.162,11.508 v 15.117 c 0,6.429 -3.728,12.403 -9.499,15.22 l -4.325,2.111 c -2.102,1.029 -3.934,2.565 -5.302,4.445 -0.212,0.283 -0.411,0.578 -0.593,0.874 -1.425,2.288 -2.178,4.926 -2.178,7.625 0,2.951 0.901,5.773 2.518,8.134 l -3.184,5.511 h -12.31 l -3.372,-5.84 c 1.327,-2.209 2.051,-4.758 2.051,-7.413 v -0.392 c 0,-5.325 -2.901,-10.172 -7.583,-12.686 -0.173,-0.099 -0.35,-0.191 -0.529,-0.277 z m 27.719,93.247 h -15.313 l 3.357,-53.269 h 8.6 z m -78.322,-40.021 c 0,-4.819 3.097,-8.991 7.709,-10.382 l 44.077,-13.309 3.551,6.149 -3.628,57.563 h -22.6 v -26.9 c 0,-3.114 -2.524,-5.639 -5.638,-5.639 -3.114,0 -5.639,2.525 -5.639,5.639 v 26.9 h -17.832 z m -98.503,11.472 h 18.289 v 24.082 c 0,2.461 -2.003,4.465 -4.464,4.465 h -9.36 c -2.461,0 -4.465,-2.004 -4.465,-4.465 z m 92.864,39.826 h 62.637 c 0.004,0 0.008,0 0.011,0 0.003,0 0.005,0 0.008,0 h 90.247 151.248 l 0.792,34.755 H 172.2 l -0.793,-34.755 z"
         fill="rgb(0,0,0)"
         id="path91"
         style="stroke:#000000;stroke-opacity:1" />
    </g>
    <clipPath
       id="_clipPath_Ome56Q59lDR46eHh8B2NuC4LksDv1Jjh">
      <path
         inkscape:connector-curvature="0"
         d="M 0,1 V 801 H 800 V 1 Z"
         fill="rgb(255,255,255)"
         id="path95" />
    </clipPath>
    <g
       clip-path="url(#_clipPath_Ome56Q59lDR46eHh8B2NuC4LksDv1Jjh)"
       id="g100"
       style="stroke:#000000;stroke-opacity:1">
      <path
         inkscape:connector-curvature="0"
         d="m 589.995,342.784 h -54.909 c -3.114,0 -5.639,2.524 -5.639,5.639 0,3.114 2.525,5.639 5.639,5.639 h 54.909 c 3.114,0 5.638,-2.525 5.638,-5.639 0,-3.115 -2.524,-5.639 -5.638,-5.639 z"
         fill="rgb(0,0,0)"
         id="path98"
         style="stroke:#000000;stroke-opacity:1" />
    </g>
    <clipPath
       id="_clipPath_7CZMCLOm58Sp4LaTap4SIN09KZD12xPD">
      <path
         inkscape:connector-curvature="0"
         d="M 0,1 V 801 H 800 V 1 Z"
         fill="rgb(255,255,255)"
         id="path102" />
    </clipPath>
    <g
       clip-path="url(#_clipPath_7CZMCLOm58Sp4LaTap4SIN09KZD12xPD)"
       id="g107"
       style="stroke:#000000;stroke-opacity:1">
      <path
         inkscape:connector-curvature="0"
         d="m 589.995,317.878 h -54.909 c -3.114,0 -5.639,2.524 -5.639,5.639 0,3.114 2.525,5.638 5.639,5.638 h 54.909 c 3.114,0 5.638,-2.524 5.638,-5.638 0,-3.115 -2.524,-5.639 -5.638,-5.639 z"
         fill="rgb(0,0,0)"
         id="path105"
         style="stroke:#000000;stroke-opacity:1" />
    </g>
    <clipPath
       id="_clipPath_mJn3Rv1baNFC0y0TXtlTTKF3BFuuPW2a">
      <path
         inkscape:connector-curvature="0"
         d="M 0,0 V 800 H 800 V 0 Z"
         fill="rgb(255,255,255)"
         id="path109" />
    </clipPath>
    <g
       clip-path="url(#_clipPath_mJn3Rv1baNFC0y0TXtlTTKF3BFuuPW2a)"
       id="g114"
       style="stroke:#000000;stroke-opacity:1">
      <path
         inkscape:connector-curvature="0"
         d="m 328.811,453.368 h 156.945 c 3.114,0 5.639,-2.525 5.639,-5.639 0,-3.115 -2.525,-5.639 -5.639,-5.639 H 328.811 c -3.114,0 -5.639,2.524 -5.639,5.639 0,3.114 2.525,5.639 5.639,5.639 z"
         fill="rgb(0,0,0)"
         id="path112"
         style="stroke:#000000;stroke-opacity:1" />
    </g>
    <clipPath
       id="_clipPath_fzBGAO8MSXO7iAvPOwJUlugeWrpna9BM">
      <path
         inkscape:connector-curvature="0"
         d="M 0,0 V 800 H 800 V 0 Z"
         fill="rgb(255,255,255)"
         id="path116" />
    </clipPath>
    <g
       clip-path="url(#_clipPath_fzBGAO8MSXO7iAvPOwJUlugeWrpna9BM)"
       id="g121"
       style="stroke:#000000;stroke-opacity:1">
      <path
         inkscape:connector-curvature="0"
         d="m 328.811,477.543 h 156.945 c 3.114,0 5.639,-2.524 5.639,-5.639 0,-3.114 -2.525,-5.638 -5.639,-5.638 H 328.811 c -3.114,0 -5.639,2.524 -5.639,5.638 0,3.115 2.525,5.639 5.639,5.639 z"
         fill="rgb(0,0,0)"
         id="path119"
         style="stroke:#000000;stroke-opacity:1" />
    </g>
    <clipPath
       id="_clipPath_UzWjpJq4rof8UeSBGZt1gFC7TUFVU6Wm">
      <path
         inkscape:connector-curvature="0"
         d="M 0,0 V 800 H 800 V 0 Z"
         fill="rgb(255,255,255)"
         id="path123" />
    </clipPath>
    <g
       clip-path="url(#_clipPath_UzWjpJq4rof8UeSBGZt1gFC7TUFVU6Wm)"
       id="g128"
       style="stroke:#000000;stroke-opacity:1">
      <path
         inkscape:connector-curvature="0"
         d="m 328.811,501.719 h 156.945 c 3.114,0 5.639,-2.525 5.639,-5.639 0,-3.115 -2.525,-5.639 -5.639,-5.639 H 328.811 c -3.114,0 -5.639,2.524 -5.639,5.639 0,3.114 2.525,5.639 5.639,5.639 z"
         fill="rgb(0,0,0)"
         id="path126"
         style="stroke:#000000;stroke-opacity:1" />
    </g>
  </g>
  <circle
     style="fill:none;fill-rule:evenodd;stroke:#000000;stroke-width:11;stroke-miterlimit:4;stroke-dasharray:none;stroke-opacity:1"
     id="path138"
     cx="307.31738"
     cy="305.80518"
     r="290.31027" />
</svg>
